# xmcd
#
# Track frame offsets:
#	150
#	22313
#	47989
#	81889
#	97336
#
# Disc length: 1740 seconds
#
# Revision: 1
# Processed by: cddbd v1.5.2PL0 Copyright (c) Steve Scherf et al.
# Submitted via: audiograbber 1.83.01
#
DISCID=4406ca05
DTITLE=Jimmie Bratcher - Don't Take Your Dreams to the Grave
DYEAR=2005
DGENRE=Blues
TTITLE0=Live Today
TTITLE1=Something Better
TTITLE2=As the Story Goes
TTITLE3=Doctor, Doctor
TTITLE4=Can't Get Over It
EXTD=
EXTT0=
EXTT1=
EXTT2=
EXTT3=
EXTT4=
PLAYORDER=
